<svg width="200" height="50" viewBox="0 0 200 50" fill="none" xmlns="http://www.w3.org/2000/svg">
<g clip-path="url(#clip0_4515_1344)">
<path d="M21.0099 0.00066323H22.3065C22.5458 -0.000884671 22.7822 0.053888 22.9973 0.160704C23.2123 0.267519 23.4002 0.423486 23.5462 0.616421C23.6922 0.809355 23.7925 1.03403 23.839 1.27291C23.8856 1.51178 23.8773 1.75839 23.8148 1.99346L16.3705 29.8836C16.3079 30.1174 16.2993 30.3629 16.3454 30.6007C16.3915 30.8385 16.4911 31.0622 16.6363 31.2543C16.7815 31.4464 16.9684 31.6018 17.1824 31.7081C17.3965 31.8145 17.6317 31.869 17.8699 31.8674H28.2249C28.5638 31.8677 28.8934 31.7545 29.1628 31.5452C29.4322 31.3359 29.6265 31.0422 29.7156 30.7094L33.9846 14.6773C34.0737 14.3421 34.269 14.0462 34.54 13.8352C34.811 13.6243 35.1428 13.5101 35.484 13.5104H36.7806C37.0191 13.5102 37.2545 13.566 37.4685 13.6734C37.6824 13.7808 37.8691 13.9369 38.0141 14.1297C38.1592 14.3224 38.2586 14.5466 38.3047 14.7848C38.3508 15.023 38.3424 15.2688 38.2801 15.5032L29.3716 48.8061C29.2824 49.1413 29.0872 49.4372 28.8161 49.6482C28.5451 49.8591 28.2133 49.9733 27.8721 49.9731H26.5755C26.3381 49.9733 26.1038 49.9178 25.8909 49.8108C25.6781 49.7038 25.4923 49.5484 25.348 49.3564C25.2038 49.1645 25.105 48.9413 25.0594 48.7042C25.0138 48.467 25.0225 48.2224 25.0849 47.9893L27.6163 38.4472C27.6787 38.2141 27.6875 37.9694 27.6418 37.7323C27.5962 37.4952 27.4974 37.272 27.3532 37.08C27.209 36.8881 27.0232 36.7326 26.8103 36.6256C26.5974 36.5187 26.3631 36.4632 26.1257 36.4634H12.1367C11.8983 36.464 11.663 36.4084 11.4493 36.3009C11.2355 36.1934 11.0492 36.0371 10.9048 35.844C10.7604 35.651 10.6619 35.4265 10.617 35.1882C10.5721 34.9499 10.5821 34.7043 10.6461 34.4706L19.4664 1.16761C19.5574 0.824885 19.7592 0.523351 20.0393 0.311639C20.3193 0.0999273 20.6612 -0.0096199 21.0099 0.00066323Z" fill="#007DA1"/>
<path d="M0 33.4473V34.8835C0 35.3026 0.163538 35.7044 0.454638 36.0007C0.745738 36.297 1.14055 36.4634 1.55223 36.4634H5.29171C5.63288 36.4637 5.96463 36.3495 6.23565 36.1385C6.50666 35.9276 6.70185 35.6316 6.79102 35.2965L7.17026 33.8602C7.23241 33.6266 7.241 33.3816 7.19537 33.1441C7.14973 32.9066 7.0511 32.6829 6.90707 32.4903C6.76304 32.2978 6.57746 32.1414 6.36467 32.0334C6.15187 31.9254 5.91754 31.8686 5.67976 31.8674H1.55223C1.14055 31.8674 0.745738 32.0339 0.454638 32.3302C0.163538 32.6265 0 33.0283 0 33.4473Z" fill="#A7D9DB"/>
<path d="M10.5843 13.5104H1.55237C1.14065 13.5104 0.745804 13.6769 0.454678 13.9731C0.163552 14.2694 0 14.6713 0 15.0903V16.5265C0 16.9455 0.163552 17.3474 0.454678 17.6437C0.745804 17.9399 1.14065 18.1064 1.55237 18.1064H10.2227C10.5628 18.1062 10.8933 17.9916 11.1628 17.7806C11.4324 17.5696 11.6259 17.2739 11.7133 16.9394L12.0926 15.5032C12.1571 15.268 12.1668 15.0208 12.121 14.7811C12.0751 14.5415 11.975 14.316 11.8287 14.1225C11.6823 13.9291 11.4936 13.7731 11.2776 13.6668C11.0616 13.5606 10.8242 13.507 10.5843 13.5104Z" fill="#A7D9DB"/>
<path d="M37.1687 33.0344L36.7894 34.4706C36.7254 34.7043 36.7154 34.95 36.7603 35.1882C36.8052 35.4265 36.9037 35.651 37.0481 35.8441C37.1925 36.0371 37.3789 36.1935 37.5926 36.3009C37.8063 36.4084 38.0416 36.464 38.28 36.4634H47.5502C47.7536 36.4646 47.9553 36.4248 48.1435 36.3464C48.3318 36.268 48.503 36.1525 48.6473 36.0065C48.7916 35.8605 48.9061 35.6869 48.9842 35.4958C49.0623 35.3046 49.1025 35.0996 49.1025 34.8925V33.4473C49.1025 33.0283 48.939 32.6265 48.6478 32.3302C48.3567 32.0339 47.9619 31.8674 47.5502 31.8674H38.6593C38.3196 31.8692 37.9899 31.9843 37.7206 32.195C37.4513 32.4058 37.2575 32.7007 37.1687 33.0344Z" fill="#A7D9DB"/>
<path d="M42.0551 14.6773L41.6758 16.1584C41.6137 16.392 41.6051 16.6371 41.6507 16.8746C41.6964 17.1121 41.795 17.3358 41.939 17.5283C42.0831 17.7209 42.2686 17.8772 42.4814 17.9852C42.6942 18.0932 42.9286 18.15 43.1663 18.1512H47.5761C47.9878 18.1512 48.3826 17.9848 48.6737 17.6885C48.9648 17.3922 49.1283 16.9904 49.1283 16.5714V15.1351C49.1283 14.7161 48.9648 14.3143 48.6737 14.018C48.3826 13.7217 47.9878 13.5552 47.5761 13.5552H43.5544C43.2189 13.5522 42.8915 13.6599 42.6212 13.8622C42.3509 14.0645 42.1523 14.3505 42.0551 14.6773Z" fill="#A7D9DB"/>
<path d="M28.6302 13.5103H25.5169C25.1765 13.509 24.8453 13.6229 24.5755 13.8342C24.3057 14.0454 24.1125 14.342 24.0264 14.6772L23.6384 16.1583C23.576 16.3927 23.5676 16.6385 23.6137 16.8767C23.6598 17.1149 23.7592 17.339 23.9042 17.5318C24.0493 17.7245 24.236 17.8807 24.4499 17.9881C24.6638 18.0955 24.8992 18.1513 25.1377 18.1511H28.2245C28.5649 18.1524 28.8961 18.0385 29.1659 17.8272C29.4358 17.616 29.6289 17.3194 29.715 16.9842L30.1031 15.5479C30.173 15.3129 30.1881 15.0646 30.1473 14.8226C30.1064 14.5806 30.0107 14.3516 29.8678 14.1539C29.7248 13.9561 29.5385 13.7949 29.3237 13.6832C29.1089 13.5715 28.8714 13.5123 28.6302 13.5103Z" fill="#A7D9DB"/>
<path d="M8.81952 41.2928L7.05562 48.0162C6.99322 48.2493 6.98449 48.494 7.03013 48.7311C7.07576 48.9682 7.17453 49.1914 7.31874 49.3834C7.46295 49.5753 7.64871 49.7308 7.86159 49.8377C8.07447 49.9447 8.30871 50.0002 8.54611 50H9.84258C10.1838 50.0002 10.5155 49.8861 10.7865 49.6751C11.0575 49.4642 11.2527 49.1683 11.3419 48.8331L13.1058 42.1186C13.1684 41.8848 13.177 41.6393 13.1309 41.4015C13.0848 41.1637 12.9852 40.94 12.84 40.7479C12.6948 40.5557 12.5079 40.4004 12.2939 40.2941C12.0799 40.1877 11.8446 40.1332 11.6065 40.1348H10.3277C9.98649 40.1336 9.65431 40.2461 9.38195 40.4552C9.10959 40.6644 8.91204 40.9585 8.81952 41.2928Z" fill="#A7D9DB"/>
<path d="M40.0525 8.71695L41.8164 1.99353C41.8782 1.76137 41.8871 1.51792 41.8425 1.28173C41.7978 1.04555 41.7007 0.822863 41.5587 0.630653C41.4166 0.438442 41.2333 0.281783 41.0227 0.172618C40.8121 0.0634528 40.5799 0.00466307 40.3436 0.000732775H39.0471C38.7059 0.000500596 38.3742 0.114683 38.1032 0.325622C37.8322 0.53656 37.637 0.832501 37.5478 1.16768L35.7839 7.89111C35.7237 8.12268 35.716 8.36515 35.7614 8.60019C35.8068 8.83523 35.9042 9.05668 36.0461 9.24779C36.1879 9.4389 36.3707 9.59467 36.5804 9.70332C36.7902 9.81197 37.0214 9.87065 37.2568 9.87493H38.5532C38.8929 9.87421 39.223 9.76076 39.4936 9.55178C39.7642 9.34281 39.9604 9.04971 40.0525 8.71695Z" fill="#A7D9DB"/>
<path d="M84.2073 24.7132C84.2034 20.6808 85.6713 16.7908 88.3263 13.7977C89.7023 12.2435 91.3775 10.9938 93.2481 10.1263C95.3047 9.17646 97.5433 8.70426 99.8015 8.7439C102.448 8.67452 105.062 9.34516 107.361 10.6828C109.379 11.8642 111.013 13.6211 112.062 15.7366L107.378 19.031C106.919 17.9163 106.201 16.9309 105.288 16.1585C104.461 15.4865 103.515 14.9836 102.501 14.6774C101.569 14.3827 100.6 14.2284 99.6251 14.2196C98.2243 14.1873 96.8381 14.5145 95.5943 15.1711C94.4756 15.7751 93.5003 16.6207 92.7365 17.6486C91.9767 18.6831 91.3979 19.8431 91.0253 21.0777C90.6409 22.3178 90.4445 23.6103 90.4432 24.9107C90.4391 26.2861 90.6658 27.6523 91.1135 28.9501C91.5317 30.2163 92.1744 31.3938 93.0099 32.424C93.8112 33.4256 94.8123 34.2425 95.9471 34.8208C97.1155 35.4177 98.406 35.7252 99.7133 35.7184C100.715 35.7084 101.709 35.5388 102.659 35.2157C103.686 34.8792 104.639 34.3426 105.464 33.6359C106.38 32.8711 107.113 31.9041 107.607 30.8082L112.591 33.7885C111.927 35.3939 110.859 36.7932 109.495 37.8458C108.069 38.9772 106.456 39.8405 104.732 40.3952C103.058 40.9713 101.304 41.2743 99.5369 41.2928C97.397 41.3201 95.2811 40.8309 93.3627 39.8656C91.5238 38.9365 89.8817 37.6495 88.5292 36.0775C87.1649 34.5102 86.0866 32.7075 85.3451 30.7544C84.5909 28.8329 84.2047 26.7823 84.2073 24.7132Z" fill="black"/>
<path d="M135.832 17.3613C135.479 17.0486 135.098 16.7692 134.695 16.5264C134.05 16.131 133.381 15.7772 132.692 15.4672C131.864 15.093 131.005 14.7927 130.126 14.5696C129.21 14.3265 128.267 14.2028 127.321 14.2015C126.005 14.1049 124.691 14.4179 123.555 15.0992C123.134 15.4003 122.797 15.8059 122.575 16.2773C122.352 16.7487 122.252 17.2702 122.284 17.7921C122.266 18.1746 122.329 18.5565 122.467 18.9125C122.605 19.2686 122.817 19.5905 123.087 19.8567C123.786 20.4608 124.604 20.9048 125.486 21.1583C126.562 21.5264 127.894 21.9124 129.499 22.3253C131.349 22.7762 133.149 23.4168 134.871 24.2373C136.276 24.8595 137.494 25.8509 138.399 27.1098C139.28 28.5223 139.709 30.1784 139.625 31.8494C139.666 33.342 139.345 34.8219 138.69 36.1581C138.084 37.3329 137.206 38.3402 136.132 39.0935C134.996 39.8804 133.724 40.4437 132.384 40.7541C130.916 41.1096 129.412 41.2844 127.903 41.2748C126.318 41.2705 124.737 41.1051 123.184 40.7811C121.633 40.4578 120.118 39.9797 118.659 39.3538C117.251 38.7416 115.911 37.9772 114.664 37.0738L117.38 31.6878C117.818 32.0914 118.297 32.4465 118.809 32.7471C119.59 33.2675 120.41 33.7238 121.261 34.1115C122.296 34.5707 123.367 34.94 124.463 35.2156C125.615 35.5196 126.801 35.6734 127.991 35.6734C129.306 35.7641 130.62 35.478 131.784 34.8476C132.186 34.5926 132.514 34.2323 132.733 33.8044C132.952 33.3765 133.053 32.8966 133.028 32.4149C133.047 31.9835 132.967 31.5533 132.794 31.1589C132.621 30.7645 132.36 30.4169 132.031 30.1439C131.18 29.4954 130.221 29.0088 129.2 28.7076C127.982 28.3037 126.553 27.8728 124.878 27.424C123.141 26.968 121.458 26.3209 119.859 25.494C118.651 24.8765 117.623 23.9481 116.878 22.801C116.167 21.588 115.817 20.1909 115.872 18.7796C115.806 16.8233 116.353 14.8962 117.433 13.2769C118.486 11.7663 119.935 10.5874 121.614 9.87483C123.463 9.0908 125.45 8.6998 127.453 8.72583C128.87 8.7211 130.282 8.88682 131.66 9.21954C132.939 9.53687 134.185 9.97565 135.383 10.5301C136.469 11.0429 137.513 11.6432 138.505 12.3254L135.832 17.3613Z" fill="black"/>
<path d="M167.003 35.6915V41.23H144.714V8.7439H166.589V14.2824H150.95V22.101H164.419V27.2266H150.95V35.6915H167.003Z" fill="black"/>
<path d="M184.6 41.23C182.43 41.2636 180.281 40.8004 178.311 39.8745C176.467 38.9927 174.817 37.7409 173.46 36.1941C172.098 34.6623 171.024 32.8883 170.293 30.9608C169.556 29.0568 169.176 27.029 169.173 24.9824C169.166 22.8795 169.568 20.7959 170.355 18.8515C171.133 16.9412 172.234 15.185 173.61 13.663C175.003 12.1458 176.679 10.9254 178.54 10.0724C180.48 9.18162 182.586 8.72842 184.714 8.74387C186.88 8.71547 189.023 9.19461 190.977 10.1442C192.822 11.0433 194.467 12.3172 195.81 13.8874C197.139 15.4315 198.187 17.2035 198.906 19.1207C199.632 21.0211 200.003 23.0425 200 25.0812C200.005 27.1564 199.619 29.2132 198.862 31.1403C198.119 33.0589 197.033 34.821 195.66 36.3378C194.279 37.8573 192.611 39.0784 190.756 39.9284C188.819 40.806 186.72 41.2499 184.6 41.23ZM175.418 24.9824C175.411 26.3486 175.623 27.7068 176.044 29.0039C176.425 30.2508 177.023 31.4183 177.808 32.4509C178.592 33.4554 179.583 34.2734 180.71 34.8477C181.922 35.4556 183.258 35.7632 184.609 35.7453C185.984 35.7826 187.347 35.4743 188.578 34.8477C189.713 34.2223 190.704 33.3596 191.488 32.3163C192.282 31.2792 192.88 30.1013 193.252 28.8423C193.636 27.5835 193.832 26.2734 193.835 24.9555C193.838 23.6013 193.627 22.2554 193.208 20.9699C192.815 19.7331 192.202 18.5801 191.4 17.5678C190.607 16.5719 189.619 15.7556 188.498 15.1711C187.296 14.5621 185.969 14.2543 184.626 14.2734C183.274 14.2431 181.935 14.5514 180.728 15.1711C179.604 15.7711 178.616 16.6026 177.826 17.6127C177.039 18.6379 176.441 19.7997 176.062 21.0417C175.646 22.3131 175.429 23.6427 175.418 24.9824Z" fill="black"/>
<path d="M69.9008 8.7439L54.9592 41.23H61.1422L62.8975 37.3432L66.6814 28.8873H66.6725L69.8037 21.9484L72.7938 28.8873H69.4686L67.1047 34.3989H75.1488L78.0684 41.23H84.3131L69.9008 8.7439Z" fill="black"/>
</g>
<defs>
<clipPath id="clip0_4515_1344">
<rect width="200" height="50" fill="white"/>
</clipPath>
</defs>
</svg>
